<?xml version="1.0" encoding="UTF-8" standalone="no" ?>
<!DOCTYPE svg PUBLIC "-//W3C//DTD SVG 1.1//EN" "http://www.w3.org/Graphics/SVG/1.1/DTD/svg11.dtd">
<svg xmlns="http://www.w3.org/2000/svg" xmlns:xlink="http://www.w3.org/1999/xlink" version="1.1" width="500" height="500" viewBox="0 0 500 500" xml:space="preserve">
<desc>Created with Fabric.js 4.6.0</desc>
<defs>
</defs>
<g transform="matrix(4.99 0 0 4.99 250.76 254.21)" id="zh-iosvNHz84Q7ob5GLr3"  >
<path style="stroke: rgb(23,152,63); stroke-width: 0; stroke-dasharray: none; stroke-linecap: butt; stroke-dashoffset: 0; stroke-linejoin: miter; stroke-miterlimit: 4; fill: rgb(38,65,143); fill-rule: nonzero; opacity: 1; visibility: hidden;" vector-effect="non-scaling-stroke"  transform=" translate(0, 0)" d="M 0 -50 C 27.6 -50 50 -27.6 50 0 C 50 27.6 27.6 50 0 50 C -27.6 50 -50 27.6 -50 0 C -50 -27.6 -27.6 -50 0 -50 z" stroke-linecap="round" />
</g>
<g transform="matrix(1 0 0 1 250 249.97)" id="U4Gh3fTPDUC8NEBKvtHtY"  >
<path style="stroke: rgb(76,247,125); stroke-width: 0; stroke-dasharray: none; stroke-linecap: butt; stroke-dashoffset: 0; stroke-linejoin: miter; stroke-miterlimit: 4; fill: rgb(30,136,229); fill-rule: nonzero; opacity: 1;" vector-effect="non-scaling-stroke"  transform=" translate(0, 0)" d="M 0 -48 C 26.496 -48 48 -26.496 48 0 C 48 26.496 26.496 48 0 48 C -26.496 48 -48 26.496 -48 0 C -48 -26.496 -26.496 -48 0 -48 z" stroke-linecap="round" />
</g>
<g transform="matrix(0 -1 1 0 250.5 97.53)" id="fX3_gEke29c5AWHEPHh6J"  >
<path style="stroke: none; stroke-width: 1; stroke-dasharray: none; stroke-linecap: butt; stroke-dashoffset: 0; stroke-linejoin: miter; stroke-miterlimit: 4; fill: rgb(33,150,243); fill-rule: nonzero; opacity: 1;" vector-effect="non-scaling-stroke"  transform=" translate(-92.35, -38)" d="M 95.04932 76.00001 L 184.6985 38.00001 L 95.05149999999999 0.000010000000003174137 L 95.05149999999999 24.093090000000004 L -1.4210854715202004e-14 24.093090000000004 L -1.4210854715202004e-14 51.97684 L 95.05366999999998 51.97684 z" stroke-linecap="round" />
</g>
<g transform="matrix(1 0 0 1 250 255.86)" id="I_UltBxIAknctAeaQNzhp"  >
<path style="stroke: rgb(0,0,0); stroke-width: 1; stroke-dasharray: none; stroke-linecap: butt; stroke-dashoffset: 0; stroke-linejoin: miter; stroke-miterlimit: 4; fill: rgb(255,255,255); fill-opacity: 0; fill-rule: nonzero; opacity: 1; visibility: hidden;" vector-effect="non-scaling-stroke"  transform=" translate(0, 0)" d="M 0 0" stroke-linecap="round" />
</g>
<g transform="matrix(1 0 0 1 249.92 253.71)" id="cnMdpwU2MnQO5hyNGi7EI"  >
<path style="stroke: rgb(0,0,0); stroke-width: 1; stroke-dasharray: none; stroke-linecap: butt; stroke-dashoffset: 0; stroke-linejoin: miter; stroke-miterlimit: 4; fill: rgb(255,255,255); fill-opacity: 0; fill-rule: nonzero; opacity: 1; visibility: hidden;" vector-effect="non-scaling-stroke"  transform=" translate(0, 0)" d="M 0 0" stroke-linecap="round" />
</g>
<g transform="matrix(1 0 0 1 252.48 249.97)" id="G8b7tr2ejNDG5DD4-kfX8"  >
<path style="stroke: rgb(0,0,0); stroke-width: 1; stroke-dasharray: none; stroke-linecap: butt; stroke-dashoffset: 0; stroke-linejoin: miter; stroke-miterlimit: 4; fill: rgb(255,255,255); fill-opacity: 0; fill-rule: nonzero; opacity: 1; visibility: hidden;" vector-effect="non-scaling-stroke"  transform=" translate(0, 0)" d="M -1.72073 -249.56633 L -1.72073 249.56632000000002 L -251.86359000000002 -0.000009999999974752427 L 251.86357999999998 -0.000009999999974752427 L -1.7207400000000064 249.56632000000002 L -251.86360000000002 249.56632000000002 L 247.26905 -249.56633 L -251.86360000000002 -249.56633 L 247.26905 249.56632000000002" stroke-linecap="round" />
</g>
<g transform="matrix(1 0 0 1 404.62 249.97)" id="wx_T7OKr8s7_X8bwz4Lbh"  >
<path style="stroke: none; stroke-width: 1; stroke-dasharray: none; stroke-linecap: butt; stroke-dashoffset: 0; stroke-linejoin: miter; stroke-miterlimit: 4; fill: rgb(33,150,243); fill-rule: nonzero; opacity: 1;" vector-effect="non-scaling-stroke"  transform=" translate(-94.71, -38)" d="M 97.47648 76 L 189.4108 38 L 97.47648 0 L 97.47648 24.09308 L 0 24.09308 L 0 51.97683 L 97.47648 51.97683 z" stroke-linecap="round" />
</g>
<g transform="matrix(0 0.94 -1 0 250.76 404.69)" id="sTIxP_nqBNalJpwqDIk0E"  >
<path style="stroke: none; stroke-width: 1; stroke-dasharray: none; stroke-linecap: butt; stroke-dashoffset: 0; stroke-linejoin: miter; stroke-miterlimit: 4; fill: rgb(33,150,243); fill-rule: nonzero; opacity: 1;" vector-effect="non-scaling-stroke"  transform=" translate(-100, -38)" d="M 102.924 76.00001 L 200 38.00001 L 102.926 0.000010000000003174137 L 102.926 24.093090000000004 L 0 24.093090000000004 L 0 51.97684 L 102.928 51.97684 z" stroke-linecap="round" />
</g>
<g transform="matrix(-0.94 0 0 -1 95.89 249.97)" id="PXGe9xecvzhsNHqRQCQbk"  >
<path style="stroke: none; stroke-width: 1; stroke-dasharray: none; stroke-linecap: butt; stroke-dashoffset: 0; stroke-linejoin: miter; stroke-miterlimit: 4; fill: rgb(33,150,243); fill-rule: nonzero; opacity: 1;" vector-effect="non-scaling-stroke"  transform=" translate(-100, -38)" d="M 102.924 76.00001 L 200 38.00001 L 102.926 0.000010000000003174137 L 102.926 24.093090000000004 L 0 24.093090000000004 L 0 51.97684 L 102.928 51.97684 z" stroke-linecap="round" />
</g>
<g transform="matrix(-0.66 -0.66 0.71 -0.71 142.07 141.97)" id="vXmynVwl1gEYJO2u0m1MH"  >
<path style="stroke: none; stroke-width: 1; stroke-dasharray: none; stroke-linecap: butt; stroke-dashoffset: 0; stroke-linejoin: miter; stroke-miterlimit: 4; fill: rgb(33,150,243); fill-rule: nonzero; opacity: 1;" vector-effect="non-scaling-stroke"  transform=" translate(-100, -38)" d="M 102.924 76.00001 L 200 38.00001 L 102.926 0.000010000000003174137 L 102.926 24.093090000000004 L 0 24.093090000000004 L 0 51.97684 L 102.928 51.97684 z" stroke-linecap="round" />
</g>
<g transform="matrix(0.69 -0.69 0.71 0.71 357.84 141.89)" id="J9_uwUWh5LUNA0z6-S04K"  >
<path style="stroke: none; stroke-width: 1; stroke-dasharray: none; stroke-linecap: butt; stroke-dashoffset: 0; stroke-linejoin: miter; stroke-miterlimit: 4; fill: rgb(33,150,243); fill-rule: nonzero; opacity: 1;" vector-effect="non-scaling-stroke"  transform=" translate(0, 0)" d="M 2.76653 38 L 94.67175 0 L 2.772100000000009 -38 L 2.772100000000009 -13.90692 L -94.67174999999999 -13.90692 L -94.67174999999999 13.97683 L 2.772100000000009 13.97683 z" stroke-linecap="round" />
</g>
<g transform="matrix(0.68 0.68 -0.71 0.71 360.31 360.21)" id="_hIsylvREdZmAAL_bEkMD"  >
<path style="stroke: none; stroke-width: 1; stroke-dasharray: none; stroke-linecap: butt; stroke-dashoffset: 0; stroke-linejoin: miter; stroke-miterlimit: 4; fill: rgb(33,150,243); fill-rule: nonzero; opacity: 1;" vector-effect="non-scaling-stroke"  transform=" translate(-100, -38)" d="M 102.924 76.00001 L 200 38.00001 L 102.926 0.000010000000003174137 L 102.926 24.093090000000004 L 0 24.093090000000004 L 0 51.97684 L 102.928 51.97684 z" stroke-linecap="round" />
</g>
<g transform="matrix(-0.68 0.68 -0.71 -0.71 139.94 360.47)" id="vIEvjnhXjP7_DN-8Gmu_W"  >
<path style="stroke: none; stroke-width: 1; stroke-dasharray: none; stroke-linecap: butt; stroke-dashoffset: 0; stroke-linejoin: miter; stroke-miterlimit: 4; fill: rgb(33,150,243); fill-rule: nonzero; opacity: 1;" vector-effect="non-scaling-stroke"  transform=" translate(-100, -38)" d="M 102.924 76.00001 L 200 38.00001 L 102.926 0.000010000000003174137 L 102.926 24.093090000000004 L 0 24.093090000000004 L 0 51.97684 L 102.928 51.97684 z" stroke-linecap="round" />
</g>
<g transform="matrix(1 0 0 1 250 250)" id="0Uy2ynsxleJm2Jx2cmNfk"  >
<path style="stroke: rgb(76,247,125); stroke-width: 0; stroke-dasharray: none; stroke-linecap: butt; stroke-dashoffset: 0; stroke-linejoin: miter; stroke-miterlimit: 4; fill: rgb(62,62,62); fill-rule: nonzero; opacity: 1; visibility: hidden;" vector-effect="non-scaling-stroke"  transform=" translate(-60, -60)" d="M 60 0 C 93.12 0 120 26.88 120 60 C 120 93.12 93.12 120 60 120 C 26.880000000000003 120 0 93.12 0 60 C 0 26.880000000000003 26.88 0 60 0 z" stroke-linecap="round" />
</g>
</svg>